<?xml version="1.0" standalone="no"?>
<!DOCTYPE svg PUBLIC "-//W3C//DTD SVG 20010904//EN"
 "http://www.w3.org/TR/2001/REC-SVG-20010904/DTD/svg10.dtd">
<svg version="1.0" xmlns="http://www.w3.org/2000/svg"
 width="300.000000pt" height="300.000000pt" viewBox="0 0 300.000000 300.000000"
 preserveAspectRatio="xMidYMid meet">
<metadata>
Created by potrace 1.14, written by Peter Selinger 2001-2017
</metadata>
<g transform="translate(0.000000,300.000000) scale(0.100000,-0.100000)"
fill="#000000" stroke="none">
<path d="M2675 2018 c-22 -29 -48 -60 -57 -70 -27 -27 -113 -158 -141 -214
-34 -66 -40 -95 -40 -174 -1 -155 118 -272 278 -273 113 -1 191 45 251 148 26
45 29 59 28 135 0 70 -5 95 -28 144 -14 33 -38 75 -51 92 -14 18 -25 36 -25
39 0 4 -11 21 -25 39 -14 17 -29 36 -33 41 -22 30 -114 145 -116 145 -1 0 -20
-24 -41 -52z m140 -339 c46 -84 32 -157 -37 -199 -33 -20 -90 -20 -128 0 -30
16 -60 70 -60 108 0 45 19 86 75 161 l48 65 38 -45 c21 -24 50 -65 64 -90z"/>
<path d="M869 1789 c-109 -17 -202 -89 -238 -183 -26 -67 -22 -172 7 -237 22
-48 80 -107 130 -133 27 -14 33 -14 68 4 46 24 107 25 170 4 37 -13 52 -13 75
-4 37 16 106 91 125 136 38 90 24 219 -30 293 -66 90 -191 138 -307 120z m145
-113 c70 -33 108 -104 103 -191 -5 -67 -30 -118 -75 -148 -139 -95 -304 -17
-319 149 -8 91 46 173 132 201 42 14 119 8 159 -11z"/>
<path d="M233 1731 c-13 -31 -43 -96 -65 -146 -22 -49 -53 -119 -69 -154 -16
-35 -39 -87 -51 -115 -12 -28 -28 -62 -35 -76 -13 -25 -12 -25 33 -28 26 -2
52 -1 58 1 7 3 23 32 36 66 l25 61 143 0 143 0 24 -52 c14 -29 25 -59 25 -65
0 -9 19 -13 60 -13 33 0 60 2 60 5 0 2 -15 37 -34 77 -19 40 -64 141 -101 223
-69 156 -102 230 -114 254 -5 9 -26 15 -60 17 l-52 2 -26 -57z m136 -193 c22
-53 41 -99 41 -102 0 -2 -45 -6 -101 -8 -117 -4 -112 -18 -48 135 51 120 46
121 108 -25z"/>
<path d="M1317 1776 c-10 -26 0 -383 12 -425 12 -41 96 -139 109 -126 3 2 12
-1 20 -8 10 -7 48 -12 106 -12 82 0 96 3 139 28 26 15 55 40 64 55 10 15 22
30 28 34 5 4 7 8 3 8 -4 0 -2 12 4 28 10 25 20 393 11 418 -2 6 -25 10 -51 10
l-47 -1 -5 -201 c-4 -169 -8 -204 -23 -227 -26 -41 -62 -59 -115 -60 -61 0
-101 19 -126 63 -21 36 -23 54 -25 365 l-1 60 -49 1 c-29 1 -52 -3 -54 -10z"/>
<path d="M2080 1726 c-16 -34 -57 -126 -93 -206 -35 -80 -81 -180 -101 -223
-20 -43 -36 -81 -36 -83 0 -3 26 -4 57 -2 l57 3 25 62 26 63 145 0 146 0 24
-65 24 -65 58 0 57 0 -16 38 c-8 20 -23 55 -33 77 -10 22 -38 85 -63 140 -25
55 -61 136 -82 180 -20 44 -42 93 -49 110 -11 28 -16 30 -65 31 l-53 0 -28
-60z m135 -179 c25 -60 45 -111 42 -113 -8 -8 -197 -9 -197 -1 0 20 96 235
101 229 4 -4 28 -56 54 -115z"/>
<path d="M1275 1221 c-40 -23 -122 -51 -154 -51 -14 0 -50 9 -79 20 -114 44
-206 30 -262 -38 -16 -20 -28 -37 -26 -39 2 -2 30 3 62 10 75 18 121 13 200
-18 101 -41 166 -32 230 30 23 21 67 95 62 101 -2 2 -17 -5 -33 -15z"/>
<path d="M1322 1171 c-5 -3 -9 -61 -9 -129 l0 -123 26 3 c22 3 26 8 25 36 -1
17 1 32 5 33 3 0 23 2 44 4 66 5 86 14 102 45 22 42 19 71 -10 103 -14 15 -29
27 -33 28 -34 5 -143 4 -150 0z m146 -59 c29 -38 2 -72 -62 -77 -37 -3 -46 8
-46 57 0 27 5 38 18 40 30 7 77 -3 90 -20z"/>
<path d="M1575 1051 l0 -126 26 -3 c25 -3 25 -1 25 50 l-1 53 59 3 c35 2 61
-1 66 -7 3 -6 5 -31 4 -56 -2 -42 -1 -45 22 -45 18 0 24 6 25 23 5 143 3 220
-8 229 -21 17 -38 3 -39 -33 -3 -73 1 -69 -64 -69 -54 0 -60 2 -65 23 -4 13
-5 27 -4 33 6 33 -2 52 -24 52 -22 0 -22 -2 -22 -127z"/>
<path d="M1920 1114 c-16 -36 -30 -67 -30 -70 0 -2 -13 -31 -29 -64 l-29 -60
28 0 c22 0 30 6 38 29 10 29 12 29 74 28 58 -2 64 -4 76 -29 9 -19 21 -28 38
-28 13 0 24 2 24 4 0 6 -74 168 -98 215 -10 20 -26 35 -39 37 -19 3 -27 -7
-53 -62z m96 -91 c-5 -7 -77 -9 -82 -2 -2 4 5 29 18 55 l22 47 21 -49 c12 -27
21 -50 21 -51z"/>
<path d="M2149 1177 c-1 -1 -2 -59 -3 -129 -2 -126 -2 -128 20 -128 19 0 23 6
26 38 3 36 4 37 38 34 19 -1 36 -7 38 -12 10 -27 46 -60 68 -60 l24 0 -25 40
-25 39 24 26 c36 39 28 107 -17 134 -17 11 -162 26 -168 18z m144 -55 c20 -17
19 -60 -2 -75 -11 -7 -37 -13 -58 -12 -38 0 -38 0 -41 44 -2 25 2 47 8 51 16
10 78 4 93 -8z"/>
<path d="M2410 1050 c0 -130 0 -130 24 -130 22 0 23 3 21 70 -1 38 2 75 7 82
6 10 8 10 8 0 0 -19 68 -122 80 -122 6 0 24 21 40 48 57 92 55 92 55 5 0 -73
1 -78 23 -81 22 -3 22 -3 22 127 0 107 -3 131 -14 131 -21 0 -40 -22 -80 -95
-21 -36 -41 -65 -46 -65 -5 0 -19 17 -30 38 -49 92 -67 115 -88 118 -22 4 -22
2 -22 -126z"/>
<path d="M2810 1115 c-50 -110 -82 -180 -87 -187 -2 -5 9 -8 24 -8 22 0 31 6
39 28 10 25 15 27 72 30 59 2 62 1 77 -28 11 -21 23 -30 41 -30 14 0 24 3 22
8 -7 12 -26 54 -71 152 -37 81 -47 96 -67 96 -18 0 -28 -12 -50 -61z m89 -91
c1 -10 -64 -12 -75 -1 -3 3 4 27 16 54 l22 48 18 -45 c11 -25 19 -50 19 -56z"/>
</g>
</svg>
